<svg xmlns="http://www.w3.org/2000/svg" xmlns:xlink="http://www.w3.org/1999/xlink" viewBox="0 0 293.16 47.44"><defs><style>.cls-1{fill:none;}.cls-2{clip-path:url(#clip-path);}.cls-3{fill:#1659AB;}</style><clipPath id="clip-path" transform="translate(-8.87 -4.74)"><rect class="cls-1" width="311.81" height="56.69"/></clipPath></defs><title>paninti-logo</title><g id="Layer_2" data-name="Layer 2"><g id="Layer_1-2" data-name="Layer 1"><g class="cls-2"><path class="cls-3" d="M23.58,25h3.61c2.85,0,4.85-.5,6-1.48a4.74,4.74,0,0,0,1.72-3.78A5.22,5.22,0,0,0,33.41,16q-1.48-1.55-5.63-1.55h-4.2ZM8.87,4.74H33.26q8,0,11.94,3.79c2.63,2.53,4,6.13,4,10.8s-1.45,8.55-4.33,11.24-7.29,4.06-13.21,4.06h-8V52.19H8.87Z" transform="translate(-8.87 -4.74)"/><path class="cls-3" d="M77.24,34.1l-5.18-17L66.86,34.1Zm3.11,10.27H63.74l-2.39,7.82h-15L64.25,4.74h16L98.07,52.19H82.72Z" transform="translate(-8.87 -4.74)"/><polygon class="cls-3" points="93.96 0 107.64 0 125.43 26.2 125.43 0 139.28 0 139.28 47.44 125.43 47.44 107.74 21.39 107.74 47.44 93.96 47.44 93.96 0"/><rect class="cls-3" x="149.62" width="14.71" height="47.44"/><polygon class="cls-3" points="174.94 0 188.62 0 206.41 26.2 206.41 0 220.26 0 220.26 47.44 206.41 47.44 188.72 21.39 188.72 47.44 174.94 47.44 174.94 0"/><polygon class="cls-3" points="226.69 0 271.28 0 271.28 11.73 256.31 11.73 256.31 47.44 241.66 47.44 241.66 11.73 226.69 11.73 226.69 0"/><rect class="cls-3" x="278.45" width="14.71" height="47.44"/></g></g></g></svg>