<svg width="386" height="283" viewBox="0 0 386 283" fill="none" xmlns="http://www.w3.org/2000/svg">
<path d="M64.52 0.619995C28.99 0.619995 0.189941 29.42 0.189941 64.95C0.189941 100.48 28.99 129.28 64.52 129.28C100.05 129.28 128.85 100.48 128.85 64.95C128.85 29.42 100.05 0.619995 64.52 0.619995ZM64.52 103.94C42.99 103.94 25.5299 86.48 25.5299 64.95C25.5299 43.42 42.98 25.96 64.52 25.96C86.05 25.96 103.51 43.41 103.51 64.95C103.51 86.49 86.05 103.94 64.52 103.94Z" fill="#EA4335"/>
<path d="M372.54 0C365.26 0 359.36 5.89999 359.36 13.18V115.16C359.36 122.44 365.26 128.34 372.54 128.34C379.82 128.34 385.72 122.44 385.72 115.16V13.18C385.72 5.89999 379.82 0 372.54 0Z" fill="#EA4335"/>
<path d="M372.54 154.01C365.26 154.01 359.36 159.91 359.36 167.19V269.17C359.36 276.45 365.26 282.35 372.54 282.35C379.82 282.35 385.72 276.45 385.72 269.17V167.19C385.72 159.91 379.82 154.01 372.54 154.01Z" fill="#0078D7"/>
<path d="M13.18 154.01C5.90002 154.01 0 159.91 0 167.19V269.17C0 276.45 5.90002 282.35 13.18 282.35C20.46 282.35 26.36 276.45 26.36 269.17V167.19C26.36 159.91 20.46 154.01 13.18 154.01Z" fill="#0078D7"/>
<path d="M282.7 0C275.42 0 269.52 5.89999 269.52 13.18V115.16C269.52 122.44 275.42 128.34 282.7 128.34C289.98 128.34 295.88 122.44 295.88 115.16V13.18C295.88 5.89999 289.98 0 282.7 0Z" fill="#34A853"/>
<path d="M192.86 0C185.58 0 179.68 5.89999 179.68 13.18V115.16C179.68 122.44 185.58 128.34 192.86 128.34C200.14 128.34 206.04 122.44 206.04 115.16V13.18C206.04 5.89999 200.14 0 192.86 0Z" fill="#34A853"/>
<path d="M269.87 155.09C234.81 155.09 206.4 183.51 206.4 218.56C206.4 253.62 234.82 282.03 269.87 282.03C304.93 282.03 333.34 253.61 333.34 218.56C333.34 183.5 304.92 155.09 269.87 155.09ZM269.87 257.03C248.62 257.03 231.4 239.81 231.4 218.56C231.4 197.31 248.62 180.09 269.87 180.09C291.12 180.09 308.34 197.31 308.34 218.56C308.34 239.81 291.11 257.03 269.87 257.03Z" fill="#FBBC04"/>
<path d="M115.86 155.09C80.8 155.09 52.39 183.51 52.39 218.56C52.39 253.62 80.81 282.03 115.86 282.03C150.92 282.03 179.33 253.61 179.33 218.56C179.33 183.5 150.91 155.09 115.86 155.09ZM115.86 257.03C94.61 257.03 77.39 239.81 77.39 218.56C77.39 197.31 94.61 180.09 115.86 180.09C137.11 180.09 154.33 197.31 154.33 218.56C154.33 239.81 137.1 257.03 115.86 257.03Z" fill="#FBBC04"/>
</svg>
