<svg width="546" height="127" viewBox="0 0 546 127" fill="none" xmlns="http://www.w3.org/2000/svg">
<path fill-rule="evenodd" clip-rule="evenodd" d="M225.012 122.808C229.735 120.46 233.671 117.135 236.82 112.636L238.787 124.372H254.728V1.72785H234.261V45.5435C228.161 38.6973 219.502 35.372 208.678 35.372C203.561 35.372 198.838 36.1544 194.706 37.9149C190.376 39.8709 186.834 42.6094 183.685 46.1303C180.537 49.8468 178.175 54.1501 176.404 59.4315C174.633 64.7128 173.649 70.7766 173.649 77.8184V83.4909C173.649 90.5327 174.633 96.7921 176.207 102.073C177.978 107.355 180.34 111.854 183.488 115.375C186.637 119.091 190.179 121.634 194.509 123.394C198.642 125.155 203.365 126.133 208.678 126.133C214.779 126.133 220.092 124.959 225.012 122.808ZM200.413 101.291C197.067 97.5745 195.296 91.5107 195.296 83.4909V77.8184C195.296 69.4073 196.87 63.3436 200.413 59.8227C203.758 56.1062 208.481 54.1501 214.779 54.1501C220.486 54.1501 225.012 56.3018 228.751 60.2139C232.49 64.3216 234.261 70.1898 234.261 77.8184V84.6646C234.064 92.0976 232.096 97.5745 228.554 101.487C224.815 105.203 220.289 107.159 214.779 107.159C208.875 107.159 203.955 105.203 200.413 101.291ZM321.244 123.786C325.967 122.416 329.903 120.46 333.248 117.722C336.594 115.179 339.152 112.245 341.12 108.724C343.088 105.203 344.662 101.487 345.646 97.3789H324.393C323.409 100.313 321.638 102.856 318.686 105.008C315.734 107.159 311.207 108.137 305.107 108.137C298.613 108.137 293.693 106.572 290.151 103.443C286.608 100.117 284.64 94.836 284.05 87.403H346.434V80.7524C346.434 66.082 342.694 54.9325 335.413 47.1083C327.935 39.2841 317.898 35.372 305.107 35.372C298.613 35.372 292.906 36.1544 287.986 38.1105C282.869 40.0665 278.54 43.0006 274.801 46.5215C271.258 50.238 268.503 54.7369 266.535 60.0183C264.567 65.2996 263.583 71.1678 263.583 77.8184V83.4909C263.583 90.1415 264.567 96.0097 266.535 101.291C268.503 106.572 271.258 111.071 274.801 114.788C278.54 118.504 282.869 121.243 287.986 123.199C292.906 125.155 298.613 126.133 305.107 126.133C311.207 126.133 316.521 125.35 321.244 123.786ZM319.276 57.2798C322.622 60.2139 324.786 64.9084 325.573 71.3634H284.444C285.428 65.104 287.592 60.4095 290.938 57.4754C294.283 54.5413 299.006 53.1721 305.107 53.1721C311.011 53.1721 315.734 54.5413 319.276 57.2798ZM408.227 124.372H432.826L400.749 75.0799L429.284 36.9368H405.275L375.756 76.4491V1.72785H355.289V124.372H375.756V105.594L387.367 90.7283L408.227 124.372Z" fill="#025D86"/>
<path fill-rule="evenodd" clip-rule="evenodd" d="M474.319 122.58C479.256 120.212 483.205 116.66 486.365 112.318L488.339 124.357H504.532V64.3586C504.532 55.28 501.57 47.9776 495.646 42.6488C489.722 37.1227 480.835 34.557 469.185 34.557C456.744 34.557 447.463 37.1227 441.539 42.2541C435.615 47.1881 432.456 53.7011 432.061 61.5956H454.177C454.77 58.6351 456.152 56.0694 458.324 54.2932C460.496 52.3195 464.248 51.5301 469.185 51.5301C474.319 51.5301 478.268 52.5169 480.441 54.6879C482.81 56.8589 483.995 60.0167 483.995 64.3586V69.6874H469.185C461.681 69.6874 455.362 70.2795 450.228 71.661C445.094 73.0425 440.947 75.0162 437.787 77.5819C434.43 79.9502 432.061 83.108 430.679 86.8579C429.099 90.6078 428.506 94.7524 428.506 99.2917C428.506 107.778 430.876 114.291 435.813 119.028C440.749 123.765 448.056 126.133 457.534 126.133C463.853 126.133 469.382 124.949 474.319 122.58ZM452.992 106.199C451.018 104.423 450.03 101.857 450.03 98.6996C450.03 94.555 451.413 91.3972 454.177 89.0289C457.139 86.6605 462.076 85.4764 469.185 85.4764H483.995V88.2394C483.995 91.0025 483.403 93.7656 482.218 96.1339C481.033 98.6996 479.453 100.871 477.479 102.844C475.504 104.818 472.937 106.199 470.172 107.384C467.408 108.568 464.446 109.16 461.089 109.16C457.534 109.16 454.967 108.173 452.992 106.199Z" fill="#025D86"/>
<path d="M544.272 0H520.082V90.712H544.272V0Z" fill="#025D86"/>
<path fill-rule="evenodd" clip-rule="evenodd" d="M531.745 126.133C539.665 126.133 546 119.946 546 112.213C546 104.674 539.665 98.4873 531.745 98.4873C524.024 98.4873 517.491 104.674 517.491 112.213C517.491 119.946 524.024 126.133 531.745 126.133Z" fill="#FAA21F"/>
<path fill-rule="evenodd" clip-rule="evenodd" d="M57.7208 123.765C62.4488 122.383 66.3888 120.409 69.7377 117.646C73.0867 115.081 75.6477 112.12 77.6177 108.568C79.5877 105.015 81.1637 101.265 82.1487 97.1207H60.8728C59.8878 100.081 58.1148 102.647 55.1598 104.818C52.2048 106.989 47.6738 107.976 41.3699 107.976C35.0659 107.976 30.1409 106.397 26.5949 103.239C23.0489 99.8838 21.0789 94.555 20.4879 87.0552H82.9367V80.3449C82.9367 65.5428 79.1937 54.2932 71.9047 46.3987C64.4188 38.5042 54.3718 34.557 41.3699 34.557C35.0659 34.557 29.3529 35.3464 24.4279 37.32C19.3059 39.2937 14.9719 42.2541 11.229 45.8066C7.68297 49.5565 4.92498 54.0958 2.95499 59.4246C0.984996 64.7533 0 70.6742 0 77.3845V83.108C0 89.8183 0.984996 95.7392 2.95499 101.068C4.92498 106.397 7.68297 110.936 11.229 114.686C14.9719 118.436 19.3059 121.199 24.4279 123.172C29.3529 125.146 35.0659 126.133 41.3699 126.133C47.6738 126.133 52.9928 125.343 57.7208 123.765ZM55.7508 56.6615C59.0998 59.6219 61.2668 64.3586 62.0548 70.8716H20.8819C21.6699 64.556 24.0339 59.8193 27.3829 56.8589C30.7319 53.8984 35.4599 52.5169 41.3699 52.5169C47.4768 52.5169 52.2048 53.8984 55.7508 56.6615Z" fill="#00B8F4"/>
<path fill-rule="evenodd" clip-rule="evenodd" d="M120.085 126.133V114.902L129.589 115.31L120.085 126.133Z" fill="#989898"/>
<path fill-rule="evenodd" clip-rule="evenodd" d="M139.922 34.557C149.646 36.7373 158.203 41.6928 165.009 48.6303V85.1021C165.009 89.8593 164.232 95.4094 162.87 101.752C161.898 105.518 159.953 109.285 157.425 113.051C154.702 116.619 151.98 119.394 148.673 121.376C145.562 123.358 141.672 124.745 137.005 125.34C133.893 125.736 130.198 126.133 126.114 126.133H120.085L129.809 115.627V102.743C132.726 101.554 134.671 100.761 136.227 98.9773C138.755 96.2022 139.922 91.8415 139.922 86.4896V34.557Z" fill="#025D86"/>
<path fill-rule="evenodd" clip-rule="evenodd" d="M90.712 48.3079C97.675 41.6289 106.185 36.7178 115.856 34.557V75.8099C115.856 81.1138 117.017 85.2391 119.531 88.1857C121.078 90.1502 124.56 91.7217 129.589 92.7039V114.902C125.527 114.902 121.852 114.705 118.757 114.313C114.115 113.723 110.054 112.348 106.959 110.384C103.864 108.419 100.963 105.669 98.4487 102.133C95.7408 98.4007 94.0001 94.6683 93.033 90.9359C91.4857 84.6498 90.712 79.1494 90.712 74.4348V48.3079Z" fill="#00B8F4"/>
</svg>
