<svg width="402" height="533" viewBox="0 0 402 533" fill="none" xmlns="http://www.w3.org/2000/svg">
<path d="M172.5 2C176.4 1.5 180.9 0.799996 182.5 0.599996C184.1 0.499996 192 0.199996 200 0.199996C208 0.0999964 218.6 0.499996 223.5 0.999996C228.4 1.6 237 3 242.5 4.1C248 5.3 257.9 8 264.5 10.1C271.1 12.3 281.9 16.7 288.5 19.9C295.1 23.1 304.6 28.5 309.5 31.7C314.4 35 323 41.3 328.5 45.7C334 50.1 341.9 57.3 346 61.6C350.2 66 356.4 73.1 359.9 77.5C363.4 81.9 367.9 88 369.8 91C371.8 94 374.9 99.2 376.8 102.5C378.7 105.8 382.2 112.9 384.6 118.3C387 123.6 390.4 132.2 392.1 137.3C393.7 142.3 396 150.1 397 154.5C398.1 158.9 399.6 167.2 400.5 173C401.3 178.8 402 190.6 402 199.5C402 208.7 401.4 219.1 400.5 224C399.8 228.7 398.4 235.9 397.5 240C396.7 244.1 394.8 251.6 393.4 256.5C392 261.4 389.3 269.8 387.5 275C385.7 280.2 383 287.4 381.5 291C380 294.6 375.1 305.1 370.5 314.5C365.9 323.9 359.1 336.9 355.3 343.5C351.5 350.1 344.7 361.4 340.1 368.5C335.5 375.6 327.2 387.8 321.7 395.5C316.2 403.2 308.7 413.3 305.1 418C301.66 422.491 294.658 431.274 289.244 438.067L288.5 439C283 445.9 264.8 466.1 248 484C231.2 501.8 214.1 520.1 210 524.6C205.9 529.1 202.1 532.9 201.5 532.9C200.9 533 189.7 521.8 176.5 508.2C163.3 494.6 147.2 477.6 140.8 470.5C134.4 463.3 124.2 451.4 118.3 444C112.4 436.5 106.1 428.6 104.4 426.5C102.7 424.3 99.1 419.6 96.4 416C93.7 412.4 87.3 403.9 82.4 397C77.4 390.1 70.2 379.8 66.3 374C62.5 368.2 56.6 359 53.2 353.5C49.9 348 44.5 338.6 41.3 332.5C38.1 326.4 32.7 315.6 29.3 308.5C25.9 301.4 20.8 289.2 18 281.5C15.1 273.8 11.3 262.3 9.50002 256C7.70002 249.7 5.30002 239.6 4.10002 233.5C3.00002 227.4 1.60002 216.9 1.10002 210C0.500024 202 0.500024 193.2 1.10002 185.5C1.60002 178.9 2.90002 168.8 4.10002 163C5.20002 157.2 8.10002 146.4 10.6 139C13.1 131.6 17.5 120.6 20.4 114.5C23.3 108.4 28.3 99.2 31.6 94C34.9 88.8 40.2 81.1 43.5 77C46.8 72.9 53.3 65.5 58 60.7C62.7 55.8 70 49 74.3 45.7C78.6 42.3 86 36.9 90.8 33.7C95.6 30.5 105.1 25 112 21.5C118.9 18 129.9 13.3 136.5 11.1C143.1 8.8 152.3 6.1 157 5C161.7 4 168.6 2.6 172.5 2Z" fill="#1F5874"/>
<path d="M174.5 75.6C178.4 74.8 182.9 73.9 184.5 73.7C186.1 73.5 193.4 73.2 200.5 73.2C207.6 73.1 216.6 73.5 220.5 74C224.4 74.6 231.6 76.2 236.5 77.6C241.4 79 250.9 82.7 257.5 86C264.1 89.2 273.3 94.8 278 98.3C282.7 101.8 290.1 108.5 294.4 113.1C298.8 117.7 304.8 125.3 307.9 130C310.9 134.7 315 141.9 316.8 146C318.7 150.1 321.4 156.7 322.7 160.5C324 164.4 326 172.6 327 178.8C328.1 184.9 329 194.1 329 199C329 205.5 328.7 208 327.7 208C327.1 208 322.8 207.4 318.4 206.8C311.9 205.8 309.9 205.7 308.6 206.8C307.3 207.8 306.5 207.6 304.2 205.8C302.7 204.5 289 192.4 273.7 178.8C249.5 157.1 246.1 153.8 247.1 152.3C247.8 151.3 248 149.7 247.6 148.8C247.3 147.8 245.9 146.6 244.5 146C243.1 145.4 240.6 143 239 140.5C236.6 137 235.4 136 233.3 136C230.7 136 230.4 135.6 229.7 131.3C229.3 128.6 229 123.1 229 119C229 114.9 228.5 109.9 227.9 108C227.3 106.1 226.5 102.6 225.5 96.1L213 104.1C205 109.2 200.3 112.9 199.8 114.3C199.5 115.5 199.2 118.2 199.1 120.3C199 123.3 198.3 124.5 195.2 127C193.2 128.7 187.6 133.1 182.9 136.8C178.2 140.5 168.6 148 161.5 153.5C154.5 159 137.2 172.6 123.1 183.7C109 194.9 97.3 204 97 204C96.7 204 94.4 202.2 91.7 200C87.3 196.2 86.6 196 74 196L74.6 188.8C74.9 184.8 75.8 178.4 76.6 174.5C77.4 170.7 79 164.6 80.1 161C81.2 157.4 84 150.5 86.4 145.5C88.7 140.6 92.9 133.1 95.7 129C98.4 124.9 104.5 117.5 109.2 112.5C113.9 107.6 121.7 100.6 126.6 97.1C131.5 93.7 139.3 88.9 144 86.5C148.7 84.2 155.9 81.1 160 79.7C164.1 78.3 170.6 76.4 174.5 75.6Z" fill="#FCFDFD"/>
<path d="M165.7 234.3C167.8 233.4 173.1 230.9 177.5 228.9C181.9 226.8 185.8 225 186.2 225C186.7 225 187.2 225.7 187.5 226.5C187.8 227.4 189.2 228 194.5 228L193.7 238.7C193.3 244.7 192.8 249.6 192.7 249.6C192.6 249.7 185.1 250.1 159.5 251.3L160.3 247.9C160.8 246 161.3 242.6 161.6 240.3C162 236.5 162.4 235.8 165.7 234.3Z" fill="#FCFDFD"/>
<path d="M261.5 274.1C267.6 273.5 273.9 272.8 275.5 272.6C277.1 272.5 281.1 272.2 290 272L289.4 276.8C289.1 279.4 287.7 283.9 286.2 286.8C283.9 291.3 283.7 292.4 284.7 294.1C285.9 295.8 285.5 296.4 281.7 299.3C279.4 301.2 274.8 304.5 271.5 306.7C268.2 309 262.6 312.2 259 314C255.4 315.8 248.9 318.6 244.5 320.2C240.1 321.8 232 324 226.5 325.2C219.1 326.7 212.6 327.3 201.5 327.3C190.6 327.4 184.2 326.9 178 325.6C173.3 324.6 166.6 322.9 163 321.8C159.4 320.7 153.1 318.2 141.5 312.9L141.1 294.5L146.8 293.2C149.9 292.5 162.2 289.9 174 287.4C185.8 285 202.7 281.9 211.5 280.5C220.3 279.2 232.7 277.4 239 276.6C245.3 275.8 255.4 274.6 261.5 274.1Z" fill="#FCFDFD"/>
<path fill-rule="evenodd" clip-rule="evenodd" d="M198.3 128C198.7 128 199 129.2 199 130.8C199 132.3 198.7 137.2 197.5 150.1L184.7 159.3C177.6 164.4 169.9 169.8 167.6 171.5C165.3 173.2 159.3 177.3 154.4 180.8C149.5 184.3 141.2 190.1 136 193.9C130.8 197.6 116.1 208 103.5 217C90.8 225.9 80.1 233.5 79.5 233.7C78.9 233.9 77.9 231.7 77.2 228.8C76.5 225.9 76.3 223.2 76.7 222.9C77.2 222.5 86 215.6 96.5 207.4C106.9 199.3 119.6 189.4 124.5 185.5C129.4 181.6 138.4 174.5 144.5 169.8C150.5 165 164.9 153.7 176.5 144.6C188 135.5 197.8 128.1 198.2 128L198.3 128ZM233.1 136C235.5 136 236.7 136.8 239.1 140.5C240.7 143 243.3 145.6 244.8 146.3C246.5 147 247.7 148.4 247.8 149.8C248 151 247.5 152.2 246.6 152.5C245.7 152.8 242.1 150.3 237.6 146.2C233.4 142.5 230.1 138.7 230.1 137.7C230.1 136.5 230.9 136 233.1 136ZM230.2 142.8L258.4 168.2C274 182.1 295.3 201.1 305.8 210.5C322.5 225.3 324.9 227.9 325 230.5C325 232.1 324.4 234.9 322.5 239.5L313.6 231.5C308.6 227.1 294.5 214.5 282.2 203.5C269.9 192.5 253.2 177.6 230.6 157.5L230.2 142.8ZM197.1 153.9C197.5 153.9 197.6 158.3 197.3 163.7C197 172.8 196.7 173.6 194.3 175.4C192.9 176.5 175.3 188.2 155.2 201.3C135.1 214.4 110.9 230.3 101.4 236.6C91.9 242.8 84 247.9 83.9 248C83.7 248 82.8 246.1 81.8 243.7C80.8 241.3 80.2 238.6 80.3 237.7C80.5 236.8 91.2 228.5 104.1 219.4C117.1 210.3 137 196.2 148.4 188.1C159.8 180 175.3 169 182.8 163.7C190.3 158.3 196.7 153.9 197.1 153.9V153.9ZM233.1 163C233.9 163.8 253.2 181 276.1 201.3C298.9 221.6 318.6 239.1 319.8 240.3C321.8 242.3 321.9 242.7 320.6 246.2C319.4 249.1 318.6 249.9 316.6 249.9C314.8 249.9 306 242.7 282.4 221.7C265 206.1 246.3 189.5 231.1 175.9L231.4 168.8C231.6 162.6 231.8 161.8 233.1 163V163ZM196.1 177.9C196.4 177.9 196.5 182.2 196.4 187.4C196.1 196.5 196 197 193.4 198.8C191.9 199.8 184.3 204.1 176.6 208.4C168.9 212.6 159.3 218.1 155.1 220.4C151 222.8 138.6 229.7 127.6 235.9C116.6 242.1 103.2 249.7 97.9 252.8C92.5 255.9 88 258.2 87.8 257.9C87.7 257.6 86.8 255.8 84.3 250.4L87.5 248.5C89.2 247.4 95.1 243.6 100.6 240.1C106.1 236.5 119.6 227.7 130.6 220.5C141.6 213.3 154.5 204.9 159.1 201.9C163.8 198.9 173.9 192.3 181.6 187.2C189.3 182.1 195.9 177.9 196.1 177.9V177.9ZM234.1 182C235 182.8 237.9 185.4 240.7 187.9C243.5 190.4 251.1 197.2 257.7 203.1C264.3 208.9 276.6 219.9 285.1 227.5C293.7 235 302.5 243 304.9 245.1C307.2 247.2 309 249.1 308.9 249.3C308.7 249.5 305 249.5 292.6 248.8L271.1 229.8C259.3 219.3 245.7 207.2 232.1 194.9L232.4 187.8C232.6 181.5 232.8 180.8 234.1 182V182ZM74.1 195.9H80.6C86.8 195.9 87.4 196.1 91.9 199.9C94.5 202.1 96.6 204.1 96.6 204.3C96.6 204.5 92.1 208.2 86.6 212.3C81.1 216.5 76.4 220 76.1 220C75.9 220 75.3 217.1 74.9 213.7C74.5 210.2 74.1 204.8 74.1 201.7V195.9ZM232.6 198.8L235.1 200.9C236.5 202.1 239.9 205.1 242.6 207.6C245.4 210.1 256.8 220.3 267.9 230.3C279.1 240.2 288.2 248.5 288.2 248.6C288.1 248.8 284.5 248.9 272.1 248.9L263.9 241.5C259.3 237.4 250.9 230 245.1 224.8C239.4 219.7 234.4 215.1 234 214.5C233.7 213.9 233.2 210.1 233 206.1L232.6 198.8ZM194.5 200.9L194.9 208.6C195 212.9 195 216.8 194.8 217.3C194.6 217.9 181.9 224.2 166.5 231.2C151.2 238.3 133.9 246.5 128.1 249.4C120.5 253.1 116 254.8 111.6 255.2C108.3 255.6 103.4 256.1 95.6 257L100.6 254C103.4 252.4 113.3 246.8 122.6 241.6C132 236.3 152 225 167.1 216.5L194.5 200.9ZM311.2 205.8C312.2 205.8 316.6 206.3 320.8 206.9C325.1 207.6 328.7 208.1 328.9 208.2C329 208.2 328.6 212 327.9 216.6C327.2 221.1 326.3 224.7 325.9 224.6C325.5 224.4 321.1 220.7 316.1 216.3C309.2 210.2 307.3 208 308.2 207C308.8 206.4 310.2 205.8 311.2 205.8V205.8ZM233.9 218.8C234.3 218.8 241.8 225.2 250.6 232.9C259.4 240.7 266.7 247.3 266.8 247.7C267 248 259.4 248.4 233.1 248.8L232.5 241C232.1 236.8 232.2 230 232.6 226C233 222.1 233.6 218.8 233.9 218.8V218.8ZM192.8 221.9C193.6 221.8 194.1 223 194.1 224.8C194.1 227.6 193.8 227.8 190.8 227.5C188.9 227.4 187.5 226.7 187.3 225.8C187.1 225 188 223.8 189.3 223.1C190.5 222.5 192.1 221.9 192.8 221.9ZM160.8 236.9C161.6 236.8 161.9 238 161.6 240.5C161.4 242.6 160.9 246 160.1 251.8H154.8C151.9 251.8 145.9 252.1 141.3 252.5C133.8 253.2 133 253.1 132.8 251.5C132.7 250.1 135.6 248.3 146.1 243.3C153.5 239.8 160.1 236.9 160.8 236.9V236.9ZM305.8 270C308 269.8 308 270 304.9 274.5C303.1 277.2 298.2 282.8 294.1 287.1C290 291.4 286.2 294.9 285.8 294.8C285.4 294.8 284.8 294 284.4 293C284.1 292 284.9 289.4 286.4 286.5C287.9 283.9 289.1 280.8 289.1 279.5C289.1 278.3 289.4 275.8 289.8 274.1C290.6 270.9 290.7 270.8 297.1 270.5C300.7 270.3 304.6 270.1 305.8 270ZM139.4 294.9C141.1 294.8 141.4 295.8 141.8 302.5C142 307.2 141.8 310.7 141.2 311.3C140.5 312 137.5 310.5 132 306.8C127.5 303.8 123.4 300.7 123 300C122.3 299.1 123.1 298.5 125.8 297.9C127.9 297.4 131.4 296.5 133.6 296C135.8 295.4 138.4 295 139.4 294.9ZM144.1 342.8H146.6C148 342.8 150.5 343.4 152.3 344.1C154.1 344.8 156.4 346.5 157.3 347.9C158.6 349.6 159.1 352.2 159.1 362.8L163.3 360.8C165.7 359.7 169.4 358.8 171.6 358.8C173.9 358.8 177.3 359.8 179.5 361.1C181.7 362.3 184.5 364.9 185.8 366.8C187.1 368.7 188.6 371.9 189.1 373.8C189.6 375.7 190.1 382 190.1 387.8C190.1 394 189.5 400.3 188.7 403.3C187.7 406.7 186 409.5 183.4 411.9C181.3 413.8 178 415.8 176.1 416.2C174.2 416.7 170.6 416.7 168.1 416.3C165.6 415.9 161.8 414.9 159.6 414.2C157.4 413.4 153.7 412.8 151.3 412.8C149 412.8 146.9 413.2 146.6 413.8C146.3 414.3 145.6 414.8 145.1 414.8C144.4 414.8 144.1 402.1 144.1 378.8V342.8ZM209.1 342.8V378.8C209.1 402.1 208.7 414.8 208.1 414.8C207.5 414.8 206.9 414.3 206.6 413.8C206.3 413.2 203.6 412.8 195.1 412.8L195 380.5C195 350.9 195.2 348.2 196.8 346.6C197.8 345.7 199.7 344.5 201.1 343.9C202.5 343.4 204.8 342.9 209.1 342.8ZM259.1 355.8V377C259.1 392.8 258.7 399.6 257.6 403.3C256.8 406 254.9 409.5 253.4 411C251.8 412.5 249.3 414.1 247.8 414.7C246.3 415.3 242.3 415.8 238.8 415.7C235.4 415.7 229.4 414.9 225.6 413.8C219.5 412.3 218.2 412.2 213.1 414.8V395.5C213.1 384.5 213.6 374.6 214.2 372.3C214.9 369.9 217 366.6 219.4 364.2C221.9 361.7 225.2 359.6 227.6 358.9C229.8 358.3 232.7 357.8 234.1 357.8C235.5 357.8 238.6 358.8 245.6 362.3L248.7 359C251.1 356.5 252.7 355.8 259.1 355.8V355.8ZM237.3 417.3C240.5 417.6 244.3 418.4 245.8 419.2C247.3 419.9 250.1 422.1 251.9 423.9C253.7 425.8 255.8 429.1 256.7 431.3C257.7 433.9 258.1 437.5 257.9 441.4C257.7 445.9 256.9 448.5 254.8 451.6C253.3 453.9 250.2 457 247.9 458.5C244.2 461 242.8 461.3 235.5 461.3C228 461.3 226.9 461 222.9 458.3C220 456.3 217.6 453.4 215.8 449.8C213.2 444.6 213.1 443.5 213 431.3C213 420.8 213.3 418.5 214.3 419.6C215 420.3 216.5 420.8 217.6 420.8C218.7 420.8 222.3 419.9 225.6 418.8C229.9 417.3 233.2 416.9 237.3 417.3V417.3Z" fill="#F9FAFA"/>
<path d="M83.7 249.4C83 249 84.2 247.7 87 245.9C89.5 244.3 91.8 243 92.2 243C92.7 243 93 243.5 93 244C93 244.6 91.2 246.1 89 247.5C86.8 248.9 84.4 249.7 83.7 249.4Z" fill="#727377"/>
<path d="M245.2 248.8C266.6 249 267 249 266.4 247C266.1 245.9 266.1 245 266.4 245C266.7 245 268.2 245.9 269.7 247C272 248.7 274 249.1 280.2 249C285.6 249 288.1 248.6 288.3 247.8C288.6 246.8 289.2 246.8 291.1 247.7C292.4 248.4 296.2 249.1 305.5 249.5L305.2 253.8C305.1 256.3 304 259.5 302.5 261.8C301.1 263.8 300 266.6 300 270.5L284.8 271.8C276.4 272.5 265.4 273.5 260.5 274.1C255.6 274.6 247.7 275.5 243 276.1C238.3 276.7 226.9 278.2 217.5 279.6C208.1 281 192.4 283.7 182.5 285.6C172.6 287.6 156.9 290.9 147.5 293.1C138.1 295.2 129.5 297.2 128.2 297.5C126.3 297.9 126 297.6 126 295.3C126.1 293.1 123.9 290.3 115.8 282C109.4 275.5 104.4 269.4 102.6 266C101.1 263 100 259.6 100.2 258.5C100.5 256.8 101.7 256.4 109 255.7C115.6 255 119 254 124.2 251.4C128 249.5 131.4 248 132 248C132.6 248 133 248.5 133 249C133 249.6 131.4 250.5 129.5 251C127.6 251.6 125.7 252.5 125.2 253.2C124.7 254.1 126 254.2 130.5 253.7C133.8 253.4 146.9 252.4 159.5 251.6C172.1 250.8 191.7 249.8 203 249.4C214.3 249 233.3 248.8 245.2 248.8Z" fill="#727377"/>
<path fill-rule="evenodd" clip-rule="evenodd" d="M225.3 96L226.1 101.3C226.8 106.4 226.7 106.6 222.9 110.2C220.8 112.3 218.3 114 217.5 114C216.7 114 216 114.6 216 115.3C216.1 115.9 215.1 117.4 214 118.5C212.1 120.3 211.9 121.7 212 133.3C212 140.8 211.6 146.2 211 146.5C210.4 146.8 210 155.8 210 170.5C210 185.5 209.6 194 209 194C208.4 194 208 200 208 226H232V231.8C232 234.9 232.3 239.8 233.2 247.5L225.4 248.2C221 248.6 212 249.3 193.1 250.5L194.5 221.6L191.7 222.3C190.2 222.7 188.8 222.7 188.5 222.2C188.3 221.8 189.6 220.7 195 218V201L190.7 203.4C188.4 204.7 177.6 210.8 166.7 216.9C155.9 223 146.8 228 146.5 228C146.2 228 146 227.4 146 226.8C146 226.1 147.7 224.6 149.8 223.4C151.8 222.3 161.8 216.7 172 211C182.2 205.4 191.7 199.9 193.2 198.9C195.9 197.1 196 196.6 196.2 187.5C196.4 182.3 196.3 178 196 178C195.7 178 194.5 178.8 193.2 179.7C191.6 180.9 190.5 181.167 189.9 180.5C189.3 179.9 190.3 178.6 196.5 174.1L197.1 164.3C197.4 158.9 197.5 154.3 197.3 154C197.1 153.7 194.8 155 192.2 156.8C189.6 158.6 187.2 159.8 186.7 159.3C186.3 158.9 188.7 156.5 197.9 149.5L198.5 139C198.8 133.2 198.8 128.4 198.5 128.3C198.2 128.1 192.5 132.3 185.7 137.5C179 142.7 173.2 147 172.7 147C172.3 147 172 146.7 172 146.3C172 145.8 176.5 141.9 182.1 137.5C187.7 133.1 193.8 128.3 195.7 126.8C198.3 124.6 199 123.2 199.1 120.3C199.2 118.2 199.5 115.5 199.8 114.3C200.3 112.9 205 109.1 212.9 104.1L225.3 96ZM232.2 141.5C233.5 142.7 253.8 160.9 277.5 182C301.1 203.1 321.8 221.5 323.5 222.9C326 225 326.4 225.9 325.9 228.4C325.433 230.467 325.133 230.8 325 229.4C324.9 228.2 318.5 221.8 309.2 213.5C300.5 205.9 279.2 186.9 261.7 171.3C243.3 154.8 230 142.2 230 141.2C229.9 139.6 230.2 139.7 232.2 141.5V141.5ZM169.2 147.9C169.6 147.9 170 148.4 170 148.9C170 149.5 163.4 155 155.4 161.2C147.4 167.4 140.4 172.5 139.9 172.7C139.4 172.8 138.9 172.5 138.8 172C138.7 171.5 142.6 168 147.5 164.2C152.5 160.5 159.2 155.3 162.5 152.7C165.7 150.1 168.8 147.9 169.2 147.9V147.9ZM236.9 163.2C238.3 164.5 245.5 170.9 252.9 177.5C260.3 184.1 277 198.9 290 210.4C302.9 222 315.6 233.2 318.2 235.4C320.9 237.8 322.6 239.9 322.2 240.6C321.7 241.3 306.7 228.6 281.5 206.2C259.5 186.7 239.6 169 237.2 166.8C234.9 164.6 233.3 162.4 233.7 161.8C234.1 161.1 235.3 161.6 236.9 163.2V163.2ZM178.2 163.9C178.7 163.9 179.2 164.3 179.5 164.7C179.7 165.1 177.8 167 175.2 168.9C172.6 170.8 168 174.1 165 176.2C162 178.2 159.2 179.9 158.7 179.9C158.3 179.9 158 179.6 158 179.2C157.9 178.8 160.4 176.6 163.5 174.4C166.6 172.2 171 169 173.3 167.2C175.6 165.4 177.8 163.9 178.2 163.9V163.9ZM132.2 176.9C132.7 176.9 133 177.4 133 177.9C133 178.5 130.3 180.9 127 183.4C123.7 185.9 120.8 187.9 120.5 187.9C120.2 187.9 119.9 187.5 119.8 187C119.7 186.5 122.3 184 125.5 181.5C128.8 179 131.8 176.9 132.2 176.9ZM154.7 181C155.4 180.9 156 181.3 156 181.7C156.1 182.1 153.7 184.1 150.8 186.2C147.9 188.2 145.2 189.9 144.7 189.9C144.3 189.9 143.9 189.5 143.8 189C143.6 188.5 145.8 186.5 148.5 184.5C151.2 182.6 154.1 181 154.7 181ZM239.3 183.6C240 184 249 192 259.5 201.3C269.9 210.7 285.6 224.6 294.2 232.4C304.2 241.3 309.6 246.8 309.1 247.4C308.5 248.1 300.3 241.4 286.3 228.9C274.3 218.2 261.8 206.9 258.5 203.9C255.2 200.8 249 195.3 244.7 191.6C240.5 187.9 237.3 184.5 237.6 183.9C237.9 183.3 238.7 183.2 239.3 183.6V183.6ZM141.2 190.9C141.6 190.9 142 191.3 142 191.7C142 192.1 138.4 195.1 133.9 198.4C128.6 202.4 125.5 204.1 124.9 203.4C124.2 202.8 126.7 200.4 132.2 196.7C136.7 193.5 140.8 190.9 141.2 190.9ZM113.2 191.9C113.7 191.9 114 192.3 114 192.7C114 193.1 110.8 196 106.8 199.2C102.8 202.4 99.4001 204.6 99.2001 204C99.1001 203.4 100 202.1 101.2 201C102.5 200 105.5 197.5 108 195.5C110.5 193.6 112.8 191.9 113.2 191.9V191.9ZM158.2 200C159.2 200 160 200.3 159.9 200.7C159.9 201.1 153.3 205.7 145.3 210.9C137.2 216.1 130.1 220.5 129.3 220.7C128.6 220.8 128.1 220.4 128.2 219.8C128.4 219.2 134.8 214.5 142.5 209.4C150.2 204.3 157.3 200.1 158.2 200V200ZM119.2 206C119.7 205.9 120.2 206.3 120.4 206.7C120.6 207.1 111.6 213.9 100.4 221.9C89.2001 229.9 79.9001 236.9 79.9001 237.4C79.9001 238 79.5001 237.5 79.1001 236.4C78.5001 234.7 79.4001 233.7 84.9001 230C88.5001 227.5 97.6001 221.1 105 215.8C112.4 210.4 118.8 206 119.2 206V206ZM244.1 206.2C244.5 206.3 254.1 214.7 265.5 224.9C276.9 235.1 287.2 244.1 288.3 245C290.1 246.3 290.2 246.7 289 247.2C288 247.5 281.3 242.2 270.4 232.6C261 224.2 250.8 215.2 247.7 212.4C244.5 209.7 242.3 207.1 242.7 206.7C243 206.2 243.7 206 244.1 206.2V206.2ZM244.4 224.7C245.1 225.1 250.4 229.7 256.3 234.9C262.7 240.5 266.6 244.7 266 245.2C265.4 245.6 260.1 241.5 253.5 235.7C247.2 230 242.3 225.1 242.6 224.7C242.9 224.2 243.7 224.2 244.4 224.7ZM140.7 229C141.4 228.9 142 229.3 142 229.7C142 230.1 133.8 235.1 123.8 240.8C113.7 246.5 103.6 252.2 101.2 253.5C98.2001 255.3 96.9 255.6 96.6 254.7C96.3 253.9 99.6001 251.5 104.8 248.7C109.6 246.1 119.3 240.6 126.5 236.5C133.6 232.4 140.1 229 140.7 229ZM102.2 236C102.7 235.9 103.2 236.4 103.5 236.9C103.8 237.5 101.6 239.4 98.7001 241.3C95.3001 243.5 93.3001 244.2 92.8001 243.5C92.4001 242.9 94.1001 241.1 96.8001 239.2C99.4001 237.5 101.8 236 102.2 236V236Z" fill="#999396"/>
<path d="M217.6 114C218.5 114 221.1 112.2 223.3 109.9L227.4 105.8L228.2 108.7C228.6 110.2 229.2 121.4 229.5 133.5C229.9 145.6 230.4 156.2 230.7 157C230.9 157.8 231.4 167.5 231.6 178.5C231.9 189.5 232.4 202.6 232.9 207.5C233.4 212.4 233.5 218.6 232.5 226H208V210C208 200 208.4 194 209 194C209.6 194 210 185.5 210 170.5C210 155.8 210.4 146.8 211 146.5C211.6 146.2 212 140.8 212 133.2C211.9 121.7 212.1 120.3 214 118.5C215.1 117.4 216.1 115.9 216 115.2C216 114.6 216.7 114 217.6 114Z" fill="#F28B38"/>
<path d="M179 164.2C179 163.8 180.3 162.5 181.8 161.3C183.3 160.1 185.1 159.1 185.7 159C186.4 159 187 159.3 187 159.7C187 160.2 185.7 161.5 184 162.7C182.4 164 180.5 165 180 165C179.4 165 179 164.7 179 164.2Z" fill="#7D8080"/>
<path d="M183.3 184.7C182.9 184.2 183.6 183 184.9 181.9C186.2 180.9 187.8 180 188.4 180C189 180 189.5 180.5 189.5 181.1C189.5 181.6 188.3 182.9 186.8 183.8C185.3 184.7 183.7 185.1 183.3 184.7Z" fill="#7D8080"/>
<path d="M237 202.7C234 200.2 231.9 197.7 232 196.5C232 194.9 233.2 195.7 237.7 200.2C240.9 203.4 243.2 206.2 242.7 206.5C242.3 206.8 239.7 205.1 237 202.7Z" fill="#7D8080"/>
<path d="M238.2 222.4C236.2 220.7 234.4 218.5 234.2 217.6C234 216.2 234.3 216 235.7 216.8C236.7 217.4 238.9 219.2 240.5 220.9C242.1 222.6 243.2 224.3 242.7 224.7C242.3 225.2 240.3 224.1 238.2 222.4Z" fill="#7D8080"/>
<path d="M164.6 233C165.6 232.2 170.9 229.4 176.4 226.8C182 224.2 187.1 222.1 187.7 222.1C188.4 222 189 222.3 189 222.7C189 223.2 183.4 226.1 176.5 229.2C169.6 232.4 163.8 234.9 163.5 234.7C163.2 234.6 163.7 233.8 164.6 233Z" fill="#7D8080"/>
<path d="M103.2 236C103.4 235.5 106.6 233 110.5 230.5C114.3 228 117.8 226 118.2 226C118.7 226 119 226.4 119 227C119 227.5 116 230 112.2 232.5C108.5 235 104.9 237 104.2 237C103.6 237 103.1 236.6 103.2 236Z" fill="#7D8080"/>
<path d="M132.7 177.4C131.9 177 132.5 176 134.5 174.4C136.1 173.1 137.8 172.1 138.3 172C138.7 172 139.2 172.3 139.5 172.7C139.7 173.2 138.6 174.5 137 175.7C135.3 177 133.4 177.7 132.7 177.4Z" fill="#ADAEAF"/>
<path d="M234.5 182.7C233.1 181.8 232 180 232 178.7C232 176.6 232.2 176.7 235.2 179.7C237 181.5 238.2 183.3 237.8 183.7C237.4 184.1 235.9 183.7 234.5 182.7Z" fill="#ADAEAF"/>
<path d="M158.2 199.3C158.4 199.2 163.8 195.6 170.4 191.2C178.2 186 182.5 183.7 183.1 184.4C183.5 185 183.6 185.8 183.2 186.2C182.8 186.5 177.6 190 171.5 193.8C165.2 197.8 160 200.6 159.2 200.2C158.5 199.8 158.1 199.4 158.2 199.3Z" fill="#ADAEAF"/>
<path d="M114 192.5C113.4 192.2 114.2 190.9 115.8 189.5C117.3 188.2 118.8 187 119.3 187C119.7 187 120.2 187.3 120.5 187.7C120.7 188.2 119.6 189.5 118 190.7C116.3 192 114.6 192.8 114 192.5Z" fill="#ADAEAF"/>
<path d="M75.5 220.1C76.1 220.1 81.4 216.3 87.4 211.6C93.6 206.8 98.5 203.7 98.7 204.3C99 205 98.8 205.8 98.3 206.1C97.9 206.4 93.1 210.1 87.8 214.3C79.9 220.5 77.7 221.8 76.3 221C75.3 220.5 74.9 220.1 75.5 220.1Z" fill="#ADAEAF"/>
<path d="M118.8 226.8C118.4 226 119.8 224.4 122.7 222.4C125.9 220.2 127.5 219.6 128.1 220.4C128.6 221.1 127.2 222.7 124.2 224.8C120.8 227.1 119.3 227.7 118.8 226.8Z" fill="#ADAEAF"/>
<path d="M141.5 229.5C141.2 228.7 141.8 227.6 142.8 227C143.7 226.5 144.8 226 145.3 226C145.7 226 146 226.6 146 227.2C146 227.9 145.1 229.1 144 229.7C142.3 230.8 141.9 230.7 141.5 229.5Z" fill="#ADAEAF"/>
<path d="M133 248.4C132 248 135.4 245.9 142.5 242.5C148.6 239.6 153.8 237.1 154.3 237.1C154.7 237 155.2 237.4 155.5 238C155.8 238.6 151.2 241.3 145.3 244C139.2 246.9 133.8 248.8 133 248.4Z" fill="#ADAEAF"/>
<path d="M307.7 250C308.4 250 309 249.3 309 248.5C309 247.7 309.3 247 309.7 247C310.2 246.9 311.2 247.6 312 248.5C312.8 249.4 314.5 250.1 315.7 250C317 250 318 250.4 318 251C318 251.6 317.5 253 316.8 254.2C316.2 255.5 315.2 257.4 314.7 258.5C314.1 259.6 312.8 262.1 311.8 264C310.7 265.9 309.3 268 308.7 268.6C308 269.3 305.8 270 303.8 270.4C300.2 271 300 270.9 300 268.3C300 266.7 301.1 263.8 302.5 261.8C303.9 259.7 305.3 256.2 305.8 254C306.2 251.8 307.1 250 307.7 250Z" fill="#696874"/>
<path d="M87.8 258.8C87.7 258.4 89.4 257.2 91.6 256.1C93.7 255 95.8 254.1 96.1 254C96.5 254 96.6 254.7 96.4 255.5C96.1 256.5 96.7 257 98 257C99.3333 257 100 257.667 100 259C100 260.1 101.2 263.4 102.7 266.2C104.3 269.2 109.9 276 115.8 282C123.3 289.7 126.1 293.2 126.1 295C126.1 296.6 125.2 297.9 123.8 298.6C121.7 299.6 120.9 299.2 115.4 294.1C112 291 106.6 285.4 103.3 281.5C100.1 277.6 96.1 272.3 94.5 269.5C92.9 266.8 90.8 263.4 89.8 262C88.8 260.6 87.9 259.2 87.8 258.8Z" fill="#696874"/>
<path d="M155.2 236.7C155.4 236.6 157.5 235.5 160 234.3C162.5 233.1 164.6 232.1 164.8 232.1C165 232 164.7 232.6 164.1 233.2C163.5 233.9 163.2 234.7 163.5 235C163.8 235.3 162.2 236.3 160 237.2C157.5 238.3 155.8 238.6 155.5 238C155.2 237.4 155.1 236.9 155.2 236.7Z" fill="#D2D1D0"/>
<path d="M124.8 253.5C124.7 253.2 126.6 252.1 129 251C131.484 250.007 133.474 249.112 133.598 249.1C133.599 249.092 133.6 249.091 133.6 249.1C133.599 249.1 133.599 249.1 133.598 249.1C133.582 249.19 133.483 250.22 133.3 251.5C133 253.7 132.5 254 129 254C126.8 254 124.9 253.8 124.8 253.5Z" fill="#D2D1D0"/>
<path d="M227.1 389.878C227.2 378 227.202 377.798 230 374.9C231.6 373.3 233.8 372 234.9 372C236.1 372 238.2 372.6 239.7 373.4C241.3 374.1 242.8 375.5 243.2 376.4C243.7 377.3 244 382.6 244 388.3C244 397.6 243.9 398.7 241.8 400.6C240.5 401.8 238.1 403 236.5 403.4C234.9 403.8 232 403.6 227 402L227.1 389.9L227.1 389.878Z" fill="#1F5874"/>
<path d="M159.6 378C160.6 376.4 162 374.6 162.9 374.1C163.8 373.5 165.9 373 167.5 373C169.1 372.9 171.6 373.8 173 374.9C175.3 376.7 175.5 377.5 175.8 386.7C176 392.1 175.7 397.6 175.1 399C174.5 400.4 172.9 402.1 171.5 402.8C170.1 403.4 167.1 404 164.7 404C162.4 404 159.9 403.5 159.2 402.8C158.4 401.9 158 398.2 158 391.3C158 383.6 158.4 380.2 159.6 378Z" fill="#1F5874"/>
<path d="M230.7 446C228.3 444.2 228 443.4 228 438V432H234C239.4 432 240.2 432.3 242 434.8C243.2 436.3 244.1 438.7 244 440.3C244 441.8 242.9 444.1 241.5 445.5C240.1 447 237.9 448 236.3 448C234.8 448.1 232.3 447.2 230.7 446Z" fill="#1F5874"/>
</svg>
