<svg width="434" height="196" viewBox="0 0 434 196" fill="none" xmlns="http://www.w3.org/2000/svg">
<path d="M139.2 18.1C140.8 17.1 142.9 16 144 15.7C145.1 15.4 147.6 15.4 149.5 15.7C151.4 16 154.3 17.2 155.9 18.3C157.5 19.5 159.4 21.4 160.2 22.5C160.9 23.6 161.5 26.6 161.5 29.3C161.5 31.9 160.8 35.4 160 37C159.2 38.7 157.3 40.9 155.8 42C153.7 43.5 151.5 44 147.5 44C142.4 43.9 141.7 43.6 137.8 39.7C134 36 133.6 35 133.5 30.8C133.5 28.1 134.2 24.7 135 23C135.8 21.4 137.7 19.2 139.2 18.1Z" fill="#38A4F4"/>
<path d="M319.3 62C319.9 60.1 321.8 57.3 323.5 55.8V55.7C325.9 53.6 327.7 53 331.1 53C333.5 53 336.9 53.7 338.5 54.5C340.1 55.3 342.2 57 343 58.2C343.9 59.5 344.5 62.7 344.5 65.7C344.5 70.3 344 71.5 341.3 74.6C338.6 77.6 337.1 78.3 333 78.7C328.4 79.2 327.7 79 324.2 75.9C322.1 74 319.9 70.9 319.3 69C318.6 66.6 318.6 64.4 319.3 62Z" fill="#E48E5D"/>
<path fill-rule="evenodd" clip-rule="evenodd" d="M364.3 1.4C362.7 0.6 360.9 0 360.2 0C359.4 0 357.6 0.9 356.1 2.1C353.9 3.7 353.3 4.9 353.4 7.6C353.5 9.6 354.3 11.8 355.5 13C356.7 14.2 358.8 15 361 15C363.7 15 365 14.3 366.5 12.3C367.7 10.7 368.6 8.7 368.5 7.8C368.5 6.8 368.2 5.3 367.8 4.4C367.3 3.5 365.8 2.1 364.3 1.4ZM432.3 1.2C431.6 0.5 428.9 0 426.3 0C422.6 0 421.2 0.5 420 2.2C418.7 4 418.3 6.7 418.4 15V25.5C409.8 21.2 407.9 20.9 402.5 21.3C398.9 21.6 394.2 22.7 392 23.8C389.8 24.9 386.1 27.8 383.8 30.4C380.8 33.6 379 36.8 377.9 40.8C376.8 44.4 376.4 48.7 376.7 52.5C377 55.8 378.1 60.5 379.3 63C380.5 65.5 382.9 69 384.7 70.9C386.5 72.7 389.8 75.2 392 76.3C395 77.9 397.8 78.5 403.5 78.5C409.4 78.5 411.7 78 414.5 76.4L418 74.3C421.8 78.2 423.6 79 426 79C427.9 79 430.4 78.6 431.5 78C433.4 77 433.5 76 433.5 39.7C433.5 11 433.2 2.2 432.3 1.2ZM367 22.5C366.1 21.6 363.6 21 360.7 21C358.1 21 355.3 21.5 354.5 22.2C353.4 23.2 353.1 28.3 353.3 49.9C353.4 69.8 353.8 76.8 354.7 77.8C355.4 78.5 358.1 79 360.7 79C363.5 79 366 78.4 366.9 77.5C368.3 76.2 368.5 72.3 368.5 50C368.5 28.2 368.3 23.8 367 22.5ZM204.1 24.8C203.5 24.4 198.2 24 192.4 24C183.4 24 181.5 24.3 179.9 25.9C178.1 27.7 178.1 30 178.5 81.1L179 134.5C184 144.7 187.2 149.2 189.7 151.4C192 153.6 196.5 156.5 199.5 157.9C204.5 160.3 206.3 160.5 219.8 160.7C233.4 161 234.7 160.8 236.5 159C238.2 157.3 238.5 155.7 238.5 148C238.5 140.3 238.2 138.7 236.5 137C234.8 135.3 233.2 135 224.5 135C219 135 213.5 134.5 212.3 134C211 133.4 209.3 131.9 208.5 130.7C207.3 128.9 207 123.8 206.8 103.8L206.5 79C233.2 79 234.7 78.8 236.5 77C238.2 75.3 238.5 73.7 238.5 66.3C238.5 60.1 238.1 56.8 237 55.3C235.6 53.1 234.9 53 221.5 53H207.5C207.5 34.8 207 29.1 206.4 27.8C205.7 26.5 204.7 25.2 204.1 24.8ZM87.8 53.1C84.7 52.5 73.2 52 59.8 52.1C46.3 52.1 34.8 52.7 31.5 53.4C28.5 54 23.1 56.1 19.5 58.1C15.5 60.3 11.4 63.6 8.9 66.6C6.7 69.3 3.8 74.2 2.5 77.5C0.3 82.9 0 85 0 98.5C0 110.5 0.4 114.6 1.9 119C2.9 122 5.4 127.4 7.5 131C9.6 134.6 13.8 140 16.8 143C19.8 146 25.1 150.2 28.6 152.3C32.1 154.4 37.9 157 41.5 158.1C45.9 159.5 51.9 160.4 60 160.7C70.9 161.2 72.2 161.1 73.9 159.4C75.5 157.7 75.6 156.5 75 149C74.6 143.4 73.7 139.7 72.6 138C71 135.8 69.8 135.4 63.4 134.9C59.3 134.6 53.5 133.5 50.5 132.5C46.8 131.3 43.5 129.2 40.5 126.1C37.1 122.7 35.4 119.8 33.8 115C32.6 111.4 31.3 105.6 30.9 102C30.4 97.3 30.7 94 31.8 90C32.7 86.9 34.5 83.4 36 82C38.5948 79.505 38.8988 79.5 57.1906 79.2018L57.3 79.2C75.2 79 76.2 79.1 80 81.2C82.6 82.7 84.8 85 86.3 88C88.5 92.4 88.5 93.3 88.5 123.3C88.5 148.8 88.2 154.6 86.9 157.8C86.1 159.8 84.2 162.8 82.7 164.4C81.2 165.9 78.1 168.1 75.8 169.1C72.4 170.6 69.1 171 60 171C48.6 171 48.5 171 46.5 173.8C44.8 176 44.4 178 44.5 184C44.5 189 45 192.3 46 193.8C47.5 196 47.9 196 67.5 196C86.9 196 87.7 195.9 93.3 193.4C96.4 192 101.5 188.4 104.5 185.5C108 182.2 111.1 177.9 113 173.9L116 167.5V78.5C111.9 70 108.7 65.5 106.3 63.1C103.9 60.7 100 57.7 97.5 56.5C95 55.3 90.6 53.7 87.8 53.1ZM160 55.1C158.2 53.1 157 52.9 147.4 53C138.5 53 136.5 53.3 135 54.8C133.2 56.6 133.1 59.5 133.3 107.1C133.4 154 133.6 157.6 135.2 159.2C136.7 160.6 139 161 147.5 161C157 161.1 158.2 160.9 160 158.9C161.9 156.8 162 155.4 162 107C162 58.6 161.9 57.2 160 55.1ZM308.8 54.8C307.3 53.3 305 53.1 293 53.1C285.3 53.2 277 53.6 274.5 54.1C272 54.6 267.8 56.1 265 57.4C262.3 58.8 258.3 61.6 256.1 63.7C254 65.8 251.1 70 249.7 73C247.8 77.2 247.2 80.1 247.2 85.5C247.2 90.8 247.8 93.7 249.6 97.4C250.9 100.1 253.8 103.9 256 105.8C258.2 107.6 261.8 110.1 264 111.2C266.2 112.4 273.6 115.3 280.5 117.7C287.4 120.1 294.1 122.8 295.5 123.9C296.9 124.9 298.1 126.8 298.3 128.1C298.5 129.6 297.8 131.3 296.5 132.5C294.5 134.3 292.7 134.5 274.1 134.8C254.7 135 253.9 135.1 252.2 137.3C250.8 139 250.4 141.3 250.5 148.3C250.5 156 250.8 157.2 252.8 159.1C254.9 161.2 255.5 161.3 278 160.8C298.5 160.4 301.6 160.2 306.5 158.2C309.5 157.1 314.2 154.2 316.9 151.8C319.6 149.4 322.8 145.7 324 143.5C325.3 141.3 326.8 137 327.5 134C328.3 130.7 328.5 126.5 328.1 123.5C327.7 120.8 326.4 116.3 325.2 113.6C323.9 110.7 321.1 107 318.5 104.8C316 102.7 309.7 99.1 304.5 96.8C299.3 94.5 291.9 91.8 288 90.7C284.2 89.6 279.8 88.1 278.3 87.4C276.4 86.4 275.5 85.2 275.5 83.5C275.5 82 276.3 80.6 277.5 80C278.6 79.4 285.6 79 293 79C305.2 79 306.7 78.8 308.5 77C310.2 75.3 310.5 73.6 310.5 65.8C310.6 58.2 310.2 56.2 308.8 54.8ZM75 109.5C74.2 108.7 72.4 108 71 108C69.4 108 68 108.9 67 110.5C66.2 111.9 65.7 113.9 66 115C66.3 116.1 67.6 117.6 68.9 118.3C71 119.3 71.8 119.2 73.9 117.8C75.5 116.7 76.5 115.1 76.5 113.5C76.5 112.1 75.8 110.3 75 109.5ZM398.4 37.3C396.5 38.5 394.2 41.1 393.3 43C392.3 44.9 391.5 48.1 391.5 50C391.5 51.9 392.3 55.1 393.3 57C394.2 58.9 396.6 61.5 398.5 62.8C400.5 64.1 403.5 65 405.5 65C407.4 65 410.5 64.1 412.3 63C414 61.9 416.5 59.1 417.6 56.7C419.2 53.6 419.6 51.5 419.1 48.7C418.8 46.7 417.8 43.6 417 42C416.2 40.3 414 38.1 412.3 37C410.5 35.9 407.4 35 405.4 35C403.4 35 400.4 35.9 398.4 37.3Z" fill="white"/>
</svg>
