<svg width="434" height="196" viewBox="0 0 434 196" fill="none" xmlns="http://www.w3.org/2000/svg">
<path d="M139.7 18.1C141.3 17.1 143.4 16 144.5 15.7C145.6 15.4 148.1 15.4 150 15.7C151.9 16 154.8 17.2 156.4 18.3C158 19.5 159.9 21.4 160.7 22.5C161.4 23.6 162 26.6 162 29.3C162 31.9 161.3 35.4 160.5 37C159.7 38.7 157.8 40.9 156.3 42C154.2 43.5 152 44 148 44C142.9 43.9 142.2 43.6 138.3 39.7C134.5 36 134.1 35 134 30.8C134 28.1 134.7 24.7 135.5 23C136.3 21.4 138.2 19.2 139.7 18.1Z" fill="#38A4F4"/>
<path d="M319.8 62C320.4 60.1 322.3 57.3 324 55.8V55.7C326.4 53.6 328.2 53 331.6 53C334 53 337.4 53.7 339 54.5C340.6 55.3 342.7 57 343.5 58.2C344.4 59.5 345 62.7 345 65.7C345 70.3 344.5 71.5 341.8 74.6C339.1 77.6 337.6 78.3 333.5 78.7C328.9 79.2 328.2 79 324.7 75.9C322.6 74 320.4 70.9 319.8 69C319.1 66.6 319.1 64.4 319.8 62Z" fill="#E48E5D"/>
<path fill-rule="evenodd" clip-rule="evenodd" d="M364.8 1.4C363.2 0.6 361.4 0 360.7 0C359.9 0 358.1 0.9 356.6 2.1C354.4 3.7 353.8 4.9 353.9 7.6C354 9.6 354.8 11.8 356 13C357.2 14.2 359.3 15 361.5 15C364.2 15 365.5 14.3 367 12.3C368.2 10.7 369.1 8.7 369 7.8C369 6.8 368.7 5.3 368.3 4.4C367.8 3.5 366.3 2.1 364.8 1.4ZM432.8 1.2C432.1 0.5 429.4 0 426.8 0C423.1 0 421.7 0.5 420.5 2.2C419.2 4 418.8 6.7 418.9 15V25.5C410.3 21.2 408.4 20.9 403 21.3C399.4 21.6 394.7 22.7 392.5 23.8C390.3 24.9 386.6 27.8 384.3 30.4C381.3 33.6 379.5 36.8 378.4 40.8C377.3 44.4 376.9 48.7 377.2 52.5C377.5 55.8 378.6 60.5 379.8 63C381 65.5 383.4 69 385.2 70.9C387 72.7 390.3 75.2 392.5 76.3C395.5 77.9 398.3 78.5 404 78.5C409.9 78.5 412.2 78 415 76.4L418.5 74.3C422.3 78.2 424.1 79 426.5 79C428.4 79 430.9 78.6 432 78C433.9 77 434 76 434 39.7C434 11 433.7 2.2 432.8 1.2ZM367.5 22.5C366.6 21.6 364.1 21 361.2 21C358.6 21 355.8 21.5 355 22.2C353.9 23.2 353.6 28.3 353.8 49.9C353.9 69.8 354.3 76.8 355.2 77.8C355.9 78.5 358.6 79 361.2 79C364 79 366.5 78.4 367.4 77.5C368.8 76.2 369 72.3 369 50C369 28.2 368.8 23.8 367.5 22.5ZM204.6 24.8C204 24.4 198.7 24 192.9 24C183.9 24 182 24.3 180.4 25.9C178.6 27.7 178.6 30 179 81.1L179.5 134.5C184.5 144.7 187.7 149.2 190.2 151.4C192.5 153.6 197 156.5 200 157.9C205 160.3 206.8 160.5 220.3 160.7C233.9 161 235.2 160.8 237 159C238.7 157.3 239 155.7 239 148C239 140.3 238.7 138.7 237 137C235.3 135.3 233.7 135 225 135C219.5 135 214 134.5 212.8 134C211.5 133.4 209.8 131.9 209 130.7C207.8 128.9 207.5 123.8 207.3 103.8L207 79C233.7 79 235.2 78.8 237 77C238.7 75.3 239 73.7 239 66.3C239 60.1 238.6 56.8 237.5 55.3C236.1 53.1 235.4 53 222 53H208C208 34.8 207.5 29.1 206.9 27.8C206.2 26.5 205.2 25.2 204.6 24.8ZM88.3 53.1C85.2 52.5 73.7 52 60.3 52.1C46.8 52.1 35.3 52.7 32 53.4C29 54 23.6 56.1 20 58.1C16 60.3 11.9 63.6 9.4 66.6C7.2 69.3 4.3 74.2 3 77.5C0.8 82.9 0.5 85 0.5 98.5C0.5 110.5 0.9 114.6 2.4 119C3.4 122 5.9 127.4 8 131C10.1 134.6 14.3 140 17.3 143C20.3 146 25.6 150.2 29.1 152.3C32.6 154.4 38.4 157 42 158.1C46.4 159.5 52.4 160.4 60.5 160.7C71.4 161.2 72.7 161.1 74.4 159.4C76 157.7 76.1 156.5 75.5 149C75.1 143.4 74.2 139.7 73.1 138C71.5 135.8 70.3 135.4 63.9 134.9C59.8 134.6 54 133.5 51 132.5C47.3 131.3 44 129.2 41 126.1C37.6 122.7 35.9 119.8 34.3 115C33.1 111.4 31.8 105.6 31.4 102C30.9 97.3 31.2 94 32.3 90C33.2 86.9 35 83.4 36.5 82C39.0948 79.505 39.3988 79.5 57.6906 79.2018L57.8 79.2C75.7 79 76.7 79.1 80.5 81.2C83.1 82.7 85.3 85 86.8 88C89 92.4 89 93.3 89 123.3C89 148.8 88.7 154.6 87.4 157.8C86.6 159.8 84.7 162.8 83.2 164.4C81.7 165.9 78.6 168.1 76.3 169.1C72.9 170.6 69.6 171 60.5 171C49.1 171 49 171 47 173.8C45.3 176 44.9 178 45 184C45 189 45.5 192.3 46.5 193.8C48 196 48.4 196 68 196C87.4 196 88.2 195.9 93.8 193.4C96.9 192 102 188.4 105 185.5C108.5 182.2 111.6 177.9 113.5 173.9L116.5 167.5V78.5C112.4 70 109.2 65.5 106.8 63.1C104.4 60.7 100.5 57.7 98 56.5C95.5 55.3 91.1 53.7 88.3 53.1ZM160.5 55.1C158.7 53.1 157.5 52.9 147.9 53C139 53 137 53.3 135.5 54.8C133.7 56.6 133.6 59.5 133.8 107.1C133.9 154 134.1 157.6 135.7 159.2C137.2 160.6 139.5 161 148 161C157.5 161.1 158.7 160.9 160.5 158.9C162.4 156.8 162.5 155.4 162.5 107C162.5 58.6 162.4 57.2 160.5 55.1ZM309.3 54.8C307.8 53.3 305.5 53.1 293.5 53.1C285.8 53.2 277.5 53.6 275 54.1C272.5 54.6 268.3 56.1 265.5 57.4C262.8 58.8 258.8 61.6 256.6 63.7C254.5 65.8 251.6 70 250.2 73C248.3 77.2 247.7 80.1 247.7 85.5C247.7 90.8 248.3 93.7 250.1 97.4C251.4 100.1 254.3 103.9 256.5 105.8C258.7 107.6 262.3 110.1 264.5 111.2C266.7 112.4 274.1 115.3 281 117.7C287.9 120.1 294.6 122.8 296 123.9C297.4 124.9 298.6 126.8 298.8 128.1C299 129.6 298.3 131.3 297 132.5C295 134.3 293.2 134.5 274.6 134.8C255.2 135 254.4 135.1 252.7 137.3C251.3 139 250.9 141.3 251 148.3C251 156 251.3 157.2 253.3 159.1C255.4 161.2 256 161.3 278.5 160.8C299 160.4 302.1 160.2 307 158.2C310 157.1 314.7 154.2 317.4 151.8C320.1 149.4 323.3 145.7 324.5 143.5C325.8 141.3 327.3 137 328 134C328.8 130.7 329 126.5 328.6 123.5C328.2 120.8 326.9 116.3 325.7 113.6C324.4 110.7 321.6 107 319 104.8C316.5 102.7 310.2 99.1 305 96.8C299.8 94.5 292.4 91.8 288.5 90.7C284.7 89.6 280.3 88.1 278.8 87.4C276.9 86.4 276 85.2 276 83.5C276 82 276.8 80.6 278 80C279.1 79.4 286.1 79 293.5 79C305.7 79 307.2 78.8 309 77C310.7 75.3 311 73.6 311 65.8C311.1 58.2 310.7 56.2 309.3 54.8ZM75.5 109.5C74.7 108.7 72.9 108 71.5 108C69.9 108 68.5 108.9 67.5 110.5C66.7 111.9 66.2 113.9 66.5 115C66.8 116.1 68.1 117.6 69.4 118.3C71.5 119.3 72.3 119.2 74.4 117.8C76 116.7 77 115.1 77 113.5C77 112.1 76.3 110.3 75.5 109.5ZM398.9 37.3C397 38.5 394.7 41.1 393.8 43C392.8 44.9 392 48.1 392 50C392 51.9 392.8 55.1 393.8 57C394.7 58.9 397.1 61.5 399 62.8C401 64.1 404 65 406 65C407.9 65 411 64.1 412.8 63C414.5 61.9 417 59.1 418.1 56.7C419.7 53.6 420.1 51.5 419.6 48.7C419.3 46.7 418.3 43.6 417.5 42C416.7 40.3 414.5 38.1 412.8 37C411 35.9 407.9 35 405.9 35C403.9 35 400.9 35.9 398.9 37.3Z" fill="#272B2F"/>
</svg>
